<svg id="XMLID_3046_" xmlns="http://www.w3.org/2000/svg" width="16.914" height="16.844" viewBox="0 0 16.914 16.844">
  <path id="XMLID_3081_" d="M75,123.339v7.768h1.845a6.24,6.24,0,0,1-.85-3.146v-2.8h.485a1,1,0,0,0,.995-.995v-.485h6.989v.485a1,1,0,0,0,.995.995h.485v2.8a6.239,6.239,0,0,1-.85,3.146h1.845v-7.78l-5.969-3.159Z" transform="translate(-72.513 -116.218)" fill="#f6a514"/>
  <path id="XMLID_3096_" d="M8.457,1.061,0,5.893V8.377L8.457,3.885h0l8.457,4.475V5.893L8.457,1.061Z" transform="translate(0 -1.061)" fill="#f6a514"/>
  <path id="XMLID_3126_" d="M141.48,256.694v-.5h-5v.5a.984.984,0,0,1-.983.983H135v1.8a5.237,5.237,0,0,0,2.3,4.345,5.492,5.492,0,0,0,1.677.756,5.489,5.489,0,0,0,1.677-.756,5.237,5.237,0,0,0,2.3-4.345v-1.8h-.5A.984.984,0,0,1,141.48,256.694Zm-3.027,5.168-1.407-1.407.7-.7.7.7,1.759-1.759.7.7Z" transform="translate(-130.523 -247.735)" fill="#f6a514"/>
</svg>
