<svg xmlns="http://www.w3.org/2000/svg" width="15.941" height="15.941" viewBox="0 0 15.941 15.941">
  <g id="svgexport-7_-_2022-12-08T102842.733" data-name="svgexport-7 - 2022-12-08T102842.733" transform="translate(-2 -2)">
    <g id="Layer_2" data-name="Layer 2" transform="translate(2 2)">
      <path id="Path_25472" data-name="Path 25472" d="M18.554,14a4.554,4.554,0,1,0,4.554,4.554A4.554,4.554,0,0,0,18.554,14Zm.569,6.8v.029a.569.569,0,1,1-1.139,0,.569.569,0,1,1,0-1.139h.854a.285.285,0,0,0,0-.569H18.27a1.423,1.423,0,0,1-.285-2.817v-.029a.569.569,0,1,1,1.139,0,.569.569,0,1,1,0,1.139H18.27a.285.285,0,0,0,0,.569h.569a1.423,1.423,0,0,1,.285,2.817Z" transform="translate(-7.168 -7.168)" fill="#f6a514"/>
      <path id="Path_25473" data-name="Path 25473" d="M13.386,7.693A5.681,5.681,0,0,1,17.44,9.4.551.551,0,0,0,17.8,9.2a.569.569,0,0,0-.063-.8l-7.4-6.262a.569.569,0,0,0-.74,0L2.2,8.4a.569.569,0,0,0,.74.865l.769-.649v7.617a1.708,1.708,0,0,0,1.708,1.708H7.124A1.142,1.142,0,0,0,8.262,16.8v-.939a5.633,5.633,0,0,1-.569-2.476,5.7,5.7,0,0,1,5.693-5.693Z" transform="translate(-2 -2)" fill="#f6a514"/>
    </g>
  </g>
</svg>
