<svg xmlns="http://www.w3.org/2000/svg" width="291" height="128.507" viewBox="0 0 291 128.507">
  <g id="Group_77086" data-name="Group 77086" transform="translate(-1523 -94)">
    <g id="svgexport-16_23_" data-name="svgexport-16 (23)" transform="translate(1671.903 62.49)">
      <path id="Path_25754" data-name="Path 25754" d="M51.362,111.771l5.664-2.23v4.407l-5.664,2.23Zm0,8.945,5.664-2.23v4.407l-5.664,2.23Zm0,8.945,5.664-2.23v4.407l-5.664,2.23Zm0-35.782,5.664-2.23v4.407l-5.664,2.23Zm0,8.945,5.664-2.23V105l-5.664,2.23Zm10.452,5.626,5.664-2.23v4.407l-5.664,2.23Zm0,8.945,5.664-2.23v4.407l-5.664,2.23Zm0,8.945,5.664-2.23v4.407l-5.664,2.23Zm0-35.782,5.664-2.23v4.407l-5.664,2.23Zm0,8.945,5.664-2.23v4.407l-5.664,2.23ZM51.362,138.9l5.664-2.23v4.407l-5.664,2.23Zm10.452-3.319,5.664-2.23v4.407l-5.664,2.23ZM142.1,155.752H36.762v4.264H142.1Zm-53.6-3.633V80.557L76.627,73.936v78.183Zm9.8,0H92.132V79.5h-.006a1.81,1.81,0,0,0-.931-1.583l-15.5-8.648a1.808,1.808,0,0,0-1.641-.06L68.342,71.62V66.048l29.952-11.61v97.681ZM67.38,75.956a1.817,1.817,0,0,1-.3.128L45.846,85.063v67.055H72.993V73.582L67.38,75.956ZM113.8,152.119V61.5l-11.872-6.621v97.24Zm19.215,0V111.244l-15.581-4.033v44.908ZM96.515,51.244v-7.69l-7.242,2.474v-12.7a1.817,1.817,0,1,0-3.633,0V47.27L73.172,51.53v8.763l23.343-9.048Zm12.454,3.415v-6.4l-8.821-4.336v6.055c.037,0,.073,0,.11.006l.03,0h.011l.036,0h.007a1.793,1.793,0,0,1,.418.106l0,0,.038.015h0l.035.015.014.006.02.009.032.015,0,0,.036.018.006,0,.037.02h0l.009.005,7.967,4.444Z" fill="#f6a514" fill-rule="evenodd"/>
    </g>
    <g id="Group_77085" data-name="Group 77085">
      <text id="عقارات_السعودية" data-name="عقارات السعودية" transform="translate(1523 151)" fill="#012f7a" font-size="24" font-family="BahijTheSansArabic-ExtraBold, Bahij TheSansArabic" font-weight="800"><tspan x="0" y="0">عقارات السعودية</tspan></text>
      <text id="وجهتك_لعقارات_موثوقة" data-name="وجهتك لعقارات موثوقة" transform="translate(1533 185)" fill="#717171" font-size="16" font-family="BahijTheSansArabic-Light, Bahij TheSansArabic" font-weight="300"><tspan x="0" y="0">وجهتك لعقارات موثوقة</tspan></text>
    </g>
  </g>
</svg>
